<?xml version="1.0" encoding="utf-8"?>
<!-- Generator: Adobe Illustrator 25.0.0, SVG Export Plug-In . SVG Version: 6.00 Build 0)  -->
<svg version="1.1" id="Calque_1" xmlns:svgjs="http://svgjs.com/svgjs"
	 xmlns="http://www.w3.org/2000/svg" xmlns:xlink="http://www.w3.org/1999/xlink" x="0px" y="0px" viewBox="0 0 512 512"
	 style="enable-background:new 0 0 512 512;" xml:space="preserve">
<style type="text/css">
	.st0{fill:#0D6EFD;}
</style>
<g>
	<path id="XMLID_746_" class="st0" d="M61.6,413.9c-1,5.9-6.1,10-11.8,10c-0.7,0-1.3-0.1-2-0.2c-11.7-2-23.3-4.7-34.4-8.2
		c-6.3-2-9.9-8.7-7.9-15c2-6.3,8.7-9.9,15-7.9c10.1,3.1,20.6,5.6,31.2,7.4C58.3,401.1,62.7,407.3,61.6,413.9z M42.8,365
		c0.7,0.1,1.4,0.2,2,0.2c5.8,0,10.8-4.1,11.8-10c1.1-6.5-3.3-12.7-9.8-13.8c-10.7-1.8-21.2-4.3-31.2-7.4c-6.3-2-13.1,1.6-15,7.9
		s1.6,13.1,7.9,15C19.5,360.3,31.1,363,42.8,365z M305.2,243.4c44.5-19.5,74.5-55.4,82.1-98.5c5-28.1-0.1-56.6-13.4-79.6
		c26.9,3.8,49.9,15.7,68.6,35.3c33.6,35.4,49.8,93,44.4,158c-0.6,6.6,4.4,12.4,11,13c0.3,0,0.7,0,1,0c6.2,0,11.4-4.7,12-11
		c6-71.9-12.6-136.2-50.9-176.6c-28.7-30.2-67.4-45.5-111.9-44.1c-4.8,0.2-9.1,3.2-10.8,7.7c-1.7,4.5-0.6,9.6,2.9,13
		c19.9,19.1,28.9,49.8,23.5,80c-3.7,20.6-17.4,58.4-68.1,80.7c-6.1,2.7-8.8,9.7-6.2,15.8C292.1,243.3,299.2,246.1,305.2,243.4z
		 M8.5,301.3c11.1,3.4,22.6,6.2,34.4,8.2c0.7,0.1,1.4,0.2,2,0.2c5.8,0,10.8-4.1,11.8-10c1.1-6.5-3.3-12.7-9.8-13.8
		c-10.7-1.8-21.2-4.3-31.2-7.4c-6.3-2-13.1,1.6-15,7.9C-1.4,292.6,2.1,299.3,8.5,301.3z M240.2,86.3
		c15.6,50.3,24.2,116.9,24.2,187.7c0,95-15.4,181.1-41.2,230.1c-2.1,3.9-6.2,6.4-10.6,6.4h-81.9c-4.5,0-8.6-2.5-10.6-6.4
		C94.2,455,78.8,369,78.8,274c0-70.7,8.6-137.4,24.2-187.7c17.2-55.4,40.9-84.7,68.6-84.7S223,30.9,240.2,86.3z M240.4,273.9
		c0-153.9-40.1-248.4-68.8-248.4c-28.7,0-68.8,94.5-68.8,248.4c0,85.9,13.4,166.2,35.3,212.5h21.5V238.1c0-6.6,5.4-12,12-12
		s12,5.4,12,12v248.4h21.5C227,440.1,240.4,359.8,240.4,273.9z M500.9,320.8c-12.5-0.9-26.9-20.3-35.7-39.1
		c-2.1-4.4-6.6-7.1-11.4-6.9c-4.9,0.2-9.1,3.4-10.7,7.9c-7.8,21.6-22.5,35.2-38.3,35.5c-15.7,0.2-29.9-12.8-39-35.8
		c-1.9-4.8-6.6-7.8-11.8-7.6c-5.1,0.3-9.5,3.8-10.9,8.7c-6.4,22.8-28.1,34.5-44.7,37.7c-6.5,1.2-10.8,7.5-9.6,14
		c1.1,5.8,6.1,9.8,11.8,9.8c0.7,0,1.5-0.1,2.2-0.2c21.5-4,40.1-15.8,52.1-31.8c13,19.1,30.6,29.5,50.4,29.2
		c19.5-0.3,37.3-11.3,49.8-29.9c10.1,15.1,25.1,31,44.2,32.5c6.6,0.5,12.4-4.5,12.9-11.1C512.5,327,507.5,321.3,500.9,320.8z
		 M500.9,406.1c-12.5-0.9-26.9-20.3-35.7-39.1c-2.1-4.4-6.6-7.1-11.4-6.9c-4.9,0.2-9.1,3.4-10.7,7.9c-7.8,21.6-22.5,35.2-38.3,35.5
		c-15.7,0.3-29.9-12.8-39-35.8c-1.9-4.8-6.6-7.8-11.8-7.6c-5.1,0.3-9.5,3.8-10.9,8.7c-6.4,22.8-28.1,34.5-44.7,37.7
		c-6.5,1.2-10.8,7.5-9.6,14c1.1,5.8,6.1,9.8,11.8,9.8c0.7,0,1.5-0.1,2.2-0.2c21.5-4,40.1-15.8,52.1-31.8
		c12.9,18.8,30.1,29.2,49.5,29.2c0.3,0,0.6,0,0.9,0c19.5-0.3,37.3-11.3,49.8-29.9c10.1,15.1,25.1,31,44.2,32.5
		c6.6,0.5,12.4-4.5,12.9-11.1C512.5,412.4,507.5,406.6,500.9,406.1z"/>
</g>
</svg>
