<?xml version="1.0" encoding="UTF-8" standalone="no"?>
<svg
   xmlns:dc="http://purl.org/dc/elements/1.1/"
   xmlns:cc="http://creativecommons.org/ns#"
   xmlns:rdf="http://www.w3.org/1999/02/22-rdf-syntax-ns#"
   xmlns:svg="http://www.w3.org/2000/svg"
   xmlns="http://www.w3.org/2000/svg"
   xmlns:sodipodi="http://sodipodi.sourceforge.net/DTD/sodipodi-0.dtd"
   xmlns:inkscape="http://www.inkscape.org/namespaces/inkscape"
   width="16"
   height="16"
   fill="currentColor"
   class="bi bi-tree"
   viewBox="0 0 16 16"
   version="1.1"
   id="svg22"
   sodipodi:docname="arbre.svg"
   inkscape:version="1.0.2 (e86c870879, 2021-01-15)">
  <metadata
     id="metadata28">
    <rdf:RDF>
      <cc:Work
         rdf:about="">
        <dc:format>image/svg+xml</dc:format>
        <dc:type
           rdf:resource="http://purl.org/dc/dcmitype/StillImage" />
        <dc:title></dc:title>
      </cc:Work>
    </rdf:RDF>
  </metadata>
  <defs
     id="defs26" />
  <sodipodi:namedview
     pagecolor="#ffffff"
     bordercolor="#666666"
     borderopacity="1"
     objecttolerance="10"
     gridtolerance="10"
     guidetolerance="10"
     inkscape:pageopacity="0"
     inkscape:pageshadow="2"
     inkscape:window-width="1366"
     inkscape:window-height="705"
     id="namedview24"
     showgrid="false"
     inkscape:zoom="33.625"
     inkscape:cx="6.8459162"
     inkscape:cy="9.1895911"
     inkscape:window-x="-8"
     inkscape:window-y="-8"
     inkscape:window-maximized="1"
     inkscape:current-layer="svg22" />
  <path
     d="M8.416.223a.5.5 0 0 0-.832 0l-3 4.5A.5.5 0 0 0 5 5.5h.098L3.076 8.735A.5.5 0 0 0 3.5 9.5h.191l-1.638 3.276a.5.5 0 0 0 .447.724H7V16h2v-2.5h4.5a.5.5 0 0 0 .447-.724L12.31 9.5h.191a.5.5 0 0 0 .424-.765L10.902 5.5H11a.5.5 0 0 0 .416-.777l-3-4.5zM6.437 4.758A.5.5 0 0 0 6 4.5h-.066L8 1.401 10.066 4.5H10a.5.5 0 0 0-.424.765L11.598 8.5H11.5a.5.5 0 0 0-.447.724L12.69 12.5H3.309l1.638-3.276A.5.5 0 0 0 4.5 8.5h-.098l2.022-3.235a.5.5 0 0 0 .013-.507z"
     id="path20"
     style="fill:#221300;fill-opacity:1" />
</svg>
