<?xml version="1.0" encoding="utf-8"?>
<!-- Generator: Adobe Illustrator 25.0.0, SVG Export Plug-In . SVG Version: 6.00 Build 0)  -->
<svg version="1.1" id="Calque_1" xmlns:svgjs="http://svgjs.com/svgjs"
	 xmlns="http://www.w3.org/2000/svg" xmlns:xlink="http://www.w3.org/1999/xlink" x="0px" y="0px" viewBox="0 0 512 512"
	 style="enable-background:new 0 0 512 512;" xml:space="preserve">
<style type="text/css">
	.st0{fill:#0D6EFD;}
</style>
<g>
	<path class="st0" d="M512,148.9c0-26.9-21.9-48.7-48.7-48.7s-48.7,21.9-48.7,48.7c0,12.9,5.1,24.7,13.3,33.4
		C413.2,198.7,392,209,368.3,209C330,209,298,182,290.2,146c9-8.8,14.5-21.1,14.5-34.7c0-26.9-21.9-48.7-48.7-48.7
		s-48.7,21.9-48.7,48.7c0,13.5,5.6,25.8,14.5,34.7c-7.8,36-39.8,63.1-78.1,63.1c-23.6,0-44.9-10.3-59.6-26.7
		c8.2-8.7,13.3-20.5,13.3-33.4c0-26.9-21.9-48.7-48.7-48.7S0,122.1,0,148.9c0,23.3,16.4,42.8,38.3,47.6
		c5.2,42.8,16.2,96.8,39.4,133.5v45c0,8.3,6.8,15.1,15.1,15.1h326.5c8.3,0,15.1-6.8,15.1-15.1v-45c23.2-36.7,34.2-90.7,39.4-133.5
		C495.6,191.7,512,172.2,512,148.9z M444.7,148.9c0-10.2,8.3-18.6,18.6-18.6s18.6,8.3,18.6,18.6s-8.3,18.6-18.6,18.6
		S444.7,159.2,444.7,148.9z M237.4,111.3c0-10.2,8.3-18.6,18.6-18.6s18.6,8.3,18.6,18.6s-8.3,18.6-18.6,18.6
		S237.4,121.6,237.4,111.3z M30.2,148.9c0-10.2,8.3-18.6,18.6-18.6s18.6,8.3,18.6,18.6s-8.3,18.6-18.6,18.6S30.2,159.2,30.2,148.9z
		 M107.8,359.9v-19.3h296.3v19.3H107.8z M411,310.4H101c-15.9-26.9-25-64.7-30.2-98.9c19.4,17.2,44.9,27.6,72.9,27.6
		c50.1,0,92.5-33.7,105.8-79.6c2.1,0.3,4.3,0.4,6.5,0.4s4.4-0.2,6.5-0.4c13.2,45.9,55.6,79.6,105.8,79.6c27.9,0,53.5-10.5,72.9-27.7
		C436,245.7,426.9,283.5,411,310.4z"/>
</g>
</svg>
