<?xml version="1.0" encoding="utf-8"?>
<!-- Generator: Adobe Illustrator 25.0.0, SVG Export Plug-In . SVG Version: 6.00 Build 0)  -->
<svg version="1.1" id="Calque_1" xmlns:svgjs="http://svgjs.com/svgjs"
	 xmlns="http://www.w3.org/2000/svg" xmlns:xlink="http://www.w3.org/1999/xlink" x="0px" y="0px" viewBox="0 0 512 512"
	 style="enable-background:new 0 0 512 512;" xml:space="preserve">
<style type="text/css">
	.st0{fill:#0D6EFD;}
</style>
<g>
	<g>
		<path class="st0" d="M457.6,54.8l-0.4-0.4c-14.7-14.7-37.2-16.9-54.3-6.8C359.1,16.4,308.5,0,256,0c-52.5,0-103.1,16.4-146.9,47.5
			c-17.2-10.1-39.6-7.8-54.3,6.8l-0.5,0.5c-14.7,14.7-16.9,37.2-6.8,54.3C16.4,152.9,0,203.5,0,256s16.4,103.1,47.5,146.9
			c-10.1,17.2-7.8,39.6,6.8,54.3l0.4,0.4c14.6,14.6,37.1,17,54.3,6.8C152.9,495.6,203.5,512,256,512c52.5,0,103.1-16.4,146.9-47.5
			c17.3,10.2,39.7,7.7,54.3-6.8l0.4-0.4c14.7-14.7,16.9-37.2,6.8-54.3C495.6,359.1,512,308.5,512,256s-16.4-103.1-47.5-146.9
			C474.6,91.9,472.3,69.5,457.6,54.8z M415.1,75.7c5.8-5.8,15.2-5.8,20.9-0.1l0.4,0.4c5.7,5.7,5.7,15.1-0.1,20.9l-74.9,74.9
			c-6.3-7.8-13.4-14.9-21.2-21.2L415.1,75.7z M361,256c0,57.9-47.1,105-105,105s-105-47.1-105-105s47.1-105,105-105
			S361,198.1,361,256z M256,30c44.1,0,86.7,13.2,124.1,38.3l-65.9,65.9c-17.6-8.5-37.4-13.2-58.2-13.2s-40.5,4.7-58.2,13.2
			l-65.9-65.9C169.3,43.2,211.9,30,256,30z M75.6,76l0.4-0.4c5.7-5.7,15.1-5.7,20.9,0.1l74.9,74.9c-7.8,6.3-14.9,13.4-21.2,21.2
			L75.7,96.9C69.9,91.1,69.8,81.7,75.6,76z M30,256c0-44.1,13.2-86.7,38.3-124.1l65.9,65.9c-8.5,17.6-13.2,37.4-13.2,58.2
			s4.7,40.5,13.2,58.2l-65.9,65.9C43.2,342.7,30,300.1,30,256z M96.9,436.3c-5.8,5.8-15.2,5.8-20.9,0.1l-0.4-0.4
			c-5.7-5.7-5.7-15.1,0.1-20.9l74.9-74.9c6.3,7.8,13.4,14.9,21.2,21.2L96.9,436.3z M256,482c-44.1,0-86.7-13.2-124.1-38.3l65.9-65.9
			c17.6,8.5,37.4,13.2,58.2,13.2s40.5-4.7,58.2-13.2l65.9,65.9C342.7,468.8,300.1,482,256,482z M436.4,436l-0.4,0.4
			c-5.7,5.7-15.1,5.7-20.9-0.1l-74.9-74.9c7.8-6.3,14.9-13.4,21.2-21.2l74.9,74.9C442.1,420.9,442.2,430.3,436.4,436L436.4,436z
			 M482,256c0,44.1-13.2,86.7-38.3,124.1l-65.9-65.9c8.5-17.6,13.2-37.4,13.2-58.2s-4.7-40.5-13.2-58.2l65.9-65.9
			C468.8,169.3,482,211.9,482,256z"/>
	</g>
</g>
</svg>
